<?xml version="1.0" encoding="utf-8"?>
<!-- Generator: Adobe Illustrator 25.0.0, SVG Export Plug-In . SVG Version: 6.00 Build 0)  -->
<svg version="1.1" id="Logo_RZ" xmlns="http://www.w3.org/2000/svg" xmlns:xlink="http://www.w3.org/1999/xlink" x="0px" y="0px"
	 width="1117.1px" height="417px" viewBox="0 0 1117.1 417" style="enable-background:new 0 0 1117.1 417;" xml:space="preserve">
<style type="text/css">
	.st0{fill:url(#SVGID_1_);}
	.st1{fill:url(#SVGID_2_);}
	.st2{fill:url(#SVGID_3_);}
	.st3{fill:url(#SVGID_4_);}
	.st4{fill:#575756;}
	.st5{fill:none;stroke:#575756;stroke-width:5;stroke-miterlimit:10;}
</style>
<g>
	
		<linearGradient id="SVGID_1_" gradientUnits="userSpaceOnUse" x1="709.7053" y1="277.5023" x2="709.7053" y2="49.8023" gradientTransform="matrix(-1 0 0 -1 930.9553 465.8046)">
		<stop  offset="0" style="stop-color:#B1D6FA"/>
		<stop  offset="1" style="stop-color:#002D5A"/>
	</linearGradient>
	<path class="st0" d="M319.7,416H268l-20.1-63.2c-9.4-1.2-27.3-4.2-47.9-12.2c-38.3-14.8-68.9-39.9-88.7-72.8
		C49.3,260.5,6.6,218,0.6,188.3h20.5c9.4,24.8,38.6,54,98.7,61.4l4.4,0.5l2.2,3.9c17.5,30.9,44.4,53.6,80,67.5
		c27,10.5,49.1,11.8,49.4,11.8l6.9,0.4l2.1,6.6l17.7,55.5h17.1l-4.1-64.2c7.7-1.9,43.5-11.3,71.7-33c37-28.4,55.6-65.5,55.7-110.4
		h19c-0.1,50.9-21.1,94.8-63.1,126.7c-22.6,17.2-52.1,27.5-63.3,31.5L319.7,416z"/>
	
		<linearGradient id="SVGID_2_" gradientUnits="userSpaceOnUse" x1="220.75" y1="465.8046" x2="220.75" y2="318.1023" gradientTransform="matrix(1 0 0 -1 0 465.8046)">
		<stop  offset="0" style="stop-color:#F24814"/>
		<stop  offset="1" style="stop-color:#FF9966"/>
	</linearGradient>
	<path class="st1" d="M422.5,147.7c-15.1-54.2-62.3-78.7-62.8-79l-1.1-0.7l-1-0.9c-66.4-75.3-176.3-39.3-177.4-39l-1.1,0.3l-1.1,0.1
		c-0.4,0-36.7,2.4-74.5,20.3c-44.9,21.3-72.8,54.5-83,98.9H0C10.8,95.2,43.6,54.8,95.6,30.4C133.5,12.6,169,9.1,175.8,8.6
		c5.7-1.5,38.1-9.6,73.1-8.5c51.2,1.6,89.8,20.6,121.9,51.9c8.2,5,56,34.3,70.7,95.7H422.5z"/>
</g>
<g id="_x3C_Gruppe_x3E_">
	
		<linearGradient id="SVGID_3_" gradientUnits="userSpaceOnUse" x1="767.2053" y1="210.7785" x2="767.2053" y2="310.4785" gradientTransform="matrix(-1 0 0 -1 957.9553 428.7808)">
		<stop  offset="0" style="stop-color:#B1D6FA"/>
		<stop  offset="1" style="stop-color:#002D5A"/>
	</linearGradient>
	<path class="st2" d="M231.4,218h-32.5c-26.8,0-48.8-22.4-48.8-49.8l0,0c0-27.4,21.9-49.9,48.8-49.9h32.5V218z"/>
	
		<linearGradient id="SVGID_4_" gradientUnits="userSpaceOnUse" x1="665.4053" y1="512.8121" x2="665.4053" y2="612.5121" gradientTransform="matrix(-1 0 0 1 957.9553 -394.5098)">
		<stop  offset="4.255185e-04" style="stop-color:#FF9966"/>
		<stop  offset="1" style="stop-color:#F24814"/>
	</linearGradient>
	<path class="st3" d="M251.9,218h32.5c26.8,0,48.8-22.4,48.8-49.8l0,0c0-27.4-21.9-49.9-48.8-49.9h-32.5V218z"/>
</g>
<g>
	<path class="st4" d="M519.1,79.9v-12h62v12h-23.9v67.5h-13.4V79.9H519.1z"/>
	<path class="st4" d="M585.6,147.4V90.5h12.8v12.4c0.9-2.8,2.2-5.2,3.9-7.2c1.7-2,3.7-3.5,6-4.6c2.3-1.1,4.8-1.6,7.5-1.6
		c0.7,0,1.3,0,1.9,0.1s1.1,0.2,1.4,0.4v12.8c-0.4-0.2-0.9-0.3-1.6-0.4c-0.6-0.1-1.2-0.1-1.7-0.1c-2.8-0.2-5.2-0.1-7.3,0.3
		c-2.1,0.4-3.9,1.2-5.3,2.2c-1.4,1-2.5,2.4-3.3,4c-0.7,1.6-1.1,3.5-1.1,5.6v33.1h-13.2V147.4z"/>
	<path class="st4" d="M637.7,122.1c0,3.2,0.5,6.1,1.5,8.6c1.1,2.5,2.6,4.4,4.7,5.9c2.1,1.4,4.7,2.1,7.8,2.1c3.2,0,5.9-0.7,8.2-2.1
		c2.3-1.4,3.9-3.6,4.6-6.5h12.3c-0.7,4-2.2,7.3-4.7,10.1c-2.5,2.8-5.5,4.8-9,6.3c-3.5,1.4-7.2,2.1-11,2.1c-5.5,0-10.3-1.2-14.5-3.5
		c-4.2-2.3-7.4-5.7-9.7-10c-2.3-4.3-3.5-9.5-3.5-15.5c0-5.8,1.1-11,3.2-15.5s5.2-8.1,9.2-10.7c4-2.6,8.8-3.9,14.5-3.9
		c5.6,0,10.3,1.2,14.2,3.6c3.8,2.4,6.7,5.7,8.7,10s2.9,9.3,2.9,15v4.1h-39.4V122.1z M637.7,113.8h26.7c0-2.8-0.5-5.2-1.4-7.5
		c-1-2.2-2.4-4-4.4-5.3s-4.4-2-7.4-2c-2.9,0-5.4,0.7-7.4,2.1c-2,1.4-3.5,3.3-4.6,5.5C638.1,109,637.6,111.3,637.7,113.8z"/>
	<path class="st4" d="M704.5,148.5c-3.6,0-6.9-0.7-9.8-2s-5.1-3.3-6.8-5.8c-1.6-2.5-2.4-5.6-2.4-9.2c0-6.3,2.3-11,6.8-14.2
		s11.8-4.9,21.7-5l8.5-0.2v-3.9c0-3-0.9-5.4-2.7-7.1c-1.8-1.7-4.5-2.5-8.3-2.5c-2.8,0-5.3,0.7-7.6,2c-2.3,1.3-3.8,3.4-4.5,6.4H688
		c0.2-3.9,1.3-7.1,3.4-9.8c2-2.6,4.8-4.6,8.4-5.9c3.6-1.3,7.7-2,12.3-2c5.4,0,9.8,0.7,13.3,2.1c3.4,1.4,5.9,3.5,7.5,6.2
		s2.4,5.9,2.4,9.8v39.9H724l-1-10.2c-2.1,4.3-4.6,7.3-7.8,8.9C712.1,147.7,708.5,148.5,704.5,148.5z M708.8,139.5
		c1.7,0,3.3-0.3,4.9-0.9s3.1-1.4,4.4-2.5c1.3-1,2.4-2.2,3.2-3.5c0.8-1.3,1.2-2.6,1.2-4v-9l-7,0.1c-3.4,0-6.5,0.4-9,1.1
		c-2.6,0.7-4.6,1.8-6,3.3c-1.4,1.5-2.2,3.5-2.2,6.1c0,2.9,1,5.2,3,6.8C703.3,138.6,705.8,139.5,708.8,139.5z"/>
	<path class="st4" d="M779,100h-12.7l0.1,32.6c0,1.7,0.2,2.9,0.6,3.7c0.4,0.8,1,1.3,1.9,1.5s2,0.4,3.5,0.4h7v8.5
		c-0.7,0.3-1.8,0.6-3.3,0.8c-1.5,0.2-3.5,0.4-6,0.4c-4.5,0-8-0.6-10.5-1.8c-2.5-1.2-4.2-2.9-5.1-5.1c-1-2.2-1.4-4.8-1.4-7.9V100
		h-9.5v-9.5h9.6l3.4-16.9h9.6v16.8h12.7v9.6H779z"/>
	<path class="st4" d="M791.6,147.4V90.5h13v8.1c1.7-2.5,3.9-4.7,6.7-6.5c2.8-1.8,6.5-2.8,10.9-2.8c2,0,4.1,0.3,6.1,1
		c2.1,0.7,4,1.7,5.8,3.1c1.8,1.4,3.2,3,4.3,5.1c1.8-2.7,4.2-4.9,7.2-6.6c3-1.7,6.4-2.6,10.1-2.6c2.1,0,4.2,0.3,6.4,1
		c2.2,0.7,4.2,1.8,6,3.3s3.3,3.6,4.5,6.3c1.1,2.7,1.7,6,1.7,10v37.4h-13.4v-35.8c0-2.8-0.5-5-1.5-6.7c-1-1.6-2.3-2.8-3.8-3.4
		c-1.6-0.7-3.2-1-5-1c-1.6,0-3.2,0.3-4.9,0.9c-1.7,0.6-3.2,1.6-4.3,3.1c-1.2,1.4-1.8,3.4-1.8,5.8v37.1h-13.4v-38
		c0-2-0.5-3.6-1.5-4.9c-1-1.3-2.3-2.3-3.9-3s-3.1-1-4.8-1c-1.7,0-3.3,0.3-5,1c-1.7,0.7-3.1,1.8-4.3,3.2c-1.1,1.4-1.7,3.3-1.7,5.6
		v37.1L791.6,147.4L791.6,147.4z"/>
	<path class="st4" d="M897.2,122.1c0,3.2,0.5,6.1,1.5,8.6c1.1,2.5,2.6,4.4,4.7,5.9c2.1,1.4,4.7,2.1,7.8,2.1c3.2,0,5.9-0.7,8.2-2.1
		c2.3-1.4,3.9-3.6,4.6-6.5h12.3c-0.7,4-2.2,7.3-4.7,10.1c-2.5,2.8-5.5,4.8-9,6.3c-3.5,1.4-7.2,2.1-11,2.1c-5.5,0-10.3-1.2-14.5-3.5
		s-7.4-5.7-9.7-10c-2.3-4.3-3.5-9.5-3.5-15.5c0-5.8,1.1-11,3.2-15.5s5.2-8.1,9.2-10.7c4-2.6,8.8-3.9,14.5-3.9
		c5.6,0,10.3,1.2,14.2,3.6c3.8,2.4,6.7,5.7,8.7,10s2.9,9.3,2.9,15v4.1h-39.4V122.1z M897.2,113.8h26.7c0-2.8-0.5-5.2-1.4-7.5
		c-1-2.2-2.4-4-4.4-5.3s-4.4-2-7.4-2c-2.9,0-5.4,0.7-7.4,2.1c-2,1.4-3.5,3.3-4.6,5.5C897.6,109,897.1,111.3,897.2,113.8z"/>
	<path class="st4" d="M946.7,147.4V90.5h13.1v8.1c0.9-1.5,2.1-2.9,3.6-4.2c1.5-1.4,3.4-2.5,5.6-3.3s4.9-1.3,7.9-1.3
		c3.5,0,6.8,0.7,9.8,2.1c3,1.4,5.5,3.6,7.3,6.5c1.9,3,2.8,6.8,2.8,11.5v37.4h-13.4v-35.8c0-3.7-1-6.5-3.1-8.3s-4.6-2.7-7.8-2.7
		c-2.1,0-4.1,0.4-6.1,1.1c-1.9,0.7-3.5,1.8-4.6,3.2c-1.2,1.4-1.8,3.3-1.8,5.4v37.1L946.7,147.4L946.7,147.4z"/>
	<path class="st4" d="M1039.1,100h-12.7l0.1,32.6c0,1.7,0.2,2.9,0.6,3.7c0.4,0.8,1,1.3,1.9,1.5s2,0.4,3.5,0.4h7v8.5
		c-0.7,0.3-1.8,0.6-3.3,0.8c-1.5,0.2-3.5,0.4-6,0.4c-4.5,0-8-0.6-10.5-1.8c-2.5-1.2-4.2-2.9-5.1-5.1c-1-2.2-1.4-4.8-1.4-7.9V100
		h-9.2v-9.5h9.6l3.4-16.9h9.6v16.8h12.7v9.6H1039.1z"/>
</g>
<g>
	<path class="st4" d="M524.4,267.9v-79.5H577l-0.1,11.5h-39.1v22.3h34.5v11.3h-34.6v22.8l40,0.1v11.5H524.4z"/>
	<path class="st4" d="M641.4,267.9h-14.2l-15-20.2l-14.8,20.2h-14.2l21.8-29.6L585,211h14.2l13.1,17.8l13.1-17.8h14.2l-20,27.3
		L641.4,267.9z"/>
	<path class="st4" d="M649.4,285.6V211h13.4l0.1,9c0.7-1.2,1.7-2.5,2.8-3.7s2.5-2.3,4-3.2c1.5-1,3.2-1.7,5.1-2.3
		c1.9-0.6,3.9-0.9,6.2-0.9c4.4,0,8.2,1,11.6,3.1c3.4,2.1,6,5.3,7.9,9.5c1.9,4.3,2.9,9.7,2.9,16.3c0,6.7-1,12.3-3,16.8
		c-2,4.5-4.7,7.8-8.3,10s-7.7,3.3-12.4,3.3c-2.2,0-4.1-0.3-5.9-0.9s-3.4-1.4-4.8-2.4s-2.6-2.1-3.7-3.4c-1-1.2-1.9-2.5-2.6-3.8v27.1
		h-13.3V285.6z M676.8,259c4,0,7.4-1.6,10-4.8c2.6-3.2,4-8.2,4-15.1c0-5.9-1.2-10.6-3.7-14.1c-2.5-3.4-5.9-5.1-10.3-5.1
		c-4.7,0-8.2,1.8-10.6,5.4c-2.3,3.6-3.5,8.2-3.5,13.8c0,3.6,0.5,6.9,1.6,9.9s2.6,5.4,4.7,7.3C671,258.1,673.6,259,676.8,259z"/>
	<path class="st4" d="M724.1,242.5c0,3.2,0.5,6.1,1.5,8.6c1.1,2.5,2.6,4.4,4.7,5.9c2.1,1.4,4.7,2.1,7.8,2.1c3.2,0,5.9-0.7,8.2-2.1
		c2.3-1.4,3.9-3.6,4.6-6.5h12.3c-0.7,4-2.2,7.3-4.7,10.1c-2.5,2.8-5.5,4.8-9,6.3c-3.5,1.4-7.2,2.1-11,2.1c-5.5,0-10.3-1.2-14.5-3.5
		c-4.2-2.3-7.4-5.7-9.7-10c-2.3-4.3-3.5-9.5-3.5-15.5c0-5.8,1.1-11,3.2-15.5s5.2-8.1,9.2-10.7s8.8-3.9,14.5-3.9
		c5.6,0,10.3,1.2,14.2,3.6c3.8,2.4,6.7,5.7,8.7,10s2.9,9.3,2.9,15v4.1h-39.4V242.5z M724.1,234.2h26.7c0-2.8-0.5-5.2-1.4-7.5
		c-1-2.2-2.4-4-4.4-5.3s-4.4-2-7.4-2c-2.9,0-5.4,0.7-7.4,2.1s-3.5,3.3-4.6,5.5C724.6,229.5,724.1,231.8,724.1,234.2z"/>
	<path class="st4" d="M798.9,209.9c4.4,0,8.3,0.9,11.7,2.6c3.4,1.8,6.1,4.2,8.1,7.3s3.3,6.7,3.7,10.6H811c-0.3-1.7-0.9-3.4-1.9-4.9
		c-1-1.6-2.3-2.8-4-3.8c-1.7-1-3.7-1.5-6.1-1.5c-4.3,0-7.7,1.6-10.4,4.7c-2.7,3.1-4,8-4,14.5c0,6,1.3,10.8,3.8,14.4
		c2.5,3.6,6.1,5.3,10.8,5.3c2.3,0,4.4-0.5,6-1.6c1.7-1,3-2.3,4-3.9s1.6-3.1,1.9-4.7h11.1c-0.3,3.8-1.5,7.3-3.6,10.3
		s-4.8,5.4-8.1,7.1c-3.4,1.7-7.2,2.6-11.6,2.6c-5.2,0-9.8-1.1-13.9-3.4c-4.1-2.3-7.2-5.6-9.5-10c-2.3-4.4-3.5-9.7-3.5-15.9
		c0-5.9,1.1-11.1,3.2-15.5c2.2-4.5,5.3-7.9,9.3-10.4C788.6,211.2,793.4,209.9,798.9,209.9z"/>
	<path class="st4" d="M862.6,220.5h-12.7l0.1,32.6c0,1.7,0.2,2.9,0.6,3.7s1,1.3,1.9,1.5s2,0.4,3.5,0.4h7v8.5
		c-0.7,0.3-1.8,0.6-3.3,0.8c-1.5,0.2-3.5,0.4-6,0.4c-4.5,0-8-0.6-10.5-1.8c-2.5-1.2-4.2-2.9-5.1-5.1c-1-2.2-1.4-4.8-1.4-7.9v-33.1
		h-9.2V211h9.6l3.4-16.9h9.6v16.8h12.7v9.6H862.6z"/>
	<path class="st4" d="M890.3,269c-3.6,0-6.9-0.7-9.8-2s-5.1-3.3-6.8-5.8c-1.6-2.5-2.4-5.6-2.4-9.2c0-6.3,2.3-11,6.8-14.2
		s11.8-4.9,21.7-5l8.5-0.2v-3.9c0-3-0.9-5.4-2.7-7.1c-1.8-1.7-4.5-2.5-8.3-2.5c-2.8,0-5.3,0.7-7.6,2c-2.3,1.3-3.8,3.4-4.5,6.4h-11.4
		c0.2-3.9,1.3-7.1,3.4-9.8c2-2.6,4.8-4.6,8.4-5.9s7.7-2,12.3-2c5.4,0,9.8,0.7,13.3,2.1c3.4,1.4,5.9,3.5,7.5,6.2s2.4,5.9,2.4,9.8v40
		h-11.3l-1-10.2c-2.1,4.3-4.6,7.3-7.8,8.9C897.9,268.2,894.3,269,890.3,269z M894.6,259.9c1.7,0,3.3-0.3,4.9-0.9s3.1-1.4,4.4-2.5
		c1.3-1,2.4-2.2,3.2-3.5c0.8-1.3,1.2-2.6,1.2-4v-9l-7,0.1c-3.4,0-6.5,0.4-9,1.1c-2.6,0.7-4.6,1.8-6,3.3s-2.2,3.5-2.2,6.1
		c0,2.9,1,5.2,3,6.8C889.1,259.1,891.6,259.9,894.6,259.9z"/>
	<path class="st4" d="M965.7,220.5H953l0.1,32.6c0,1.7,0.2,2.9,0.6,3.7s1,1.3,1.9,1.5s2,0.4,3.5,0.4h7v8.5c-0.7,0.3-1.8,0.6-3.3,0.8
		c-1.5,0.2-3.5,0.4-6,0.4c-4.5,0-8-0.6-10.5-1.8c-2.5-1.2-4.2-2.9-5.1-5.1c-1-2.2-1.4-4.8-1.4-7.9v-33.1h-9.2V211h9.6l3.4-16.9h9.6
		v16.8h12.7v9.6H965.7z"/>
	<path class="st4" d="M992.2,188.4V201h-13.3v-12.6H992.2z M992.1,211v56.9h-12.9V211H992.1z"/>
	<path class="st4" d="M1029.6,269c-5.4,0-10.2-1.2-14.2-3.5s-7.2-5.7-9.4-10c-2.2-4.3-3.3-9.6-3.3-15.7c0-5.9,1.1-11.1,3.2-15.6
		s5.2-8,9.3-10.5c4-2.5,8.9-3.7,14.5-3.7c5.4,0,10.1,1.2,14.1,3.6s7.1,5.8,9.3,10.2c2.2,4.4,3.3,9.8,3.3,16c0,5.8-1,10.8-3.1,15.2
		c-2.1,4.4-5.1,7.8-9.1,10.3S1035.3,269,1029.6,269z M1029.6,258.8c3.1,0,5.6-0.8,7.6-2.5c2-1.7,3.5-4,4.5-6.9s1.5-6.3,1.5-10
		c0-3.5-0.4-6.7-1.3-9.6s-2.3-5.3-4.3-7.1c-2-1.8-4.6-2.7-7.9-2.7c-3.1,0-5.7,0.8-7.7,2.4s-3.6,3.9-4.6,6.8s-1.5,6.3-1.5,10.1
		c0,3.4,0.4,6.6,1.3,9.6s2.4,5.3,4.4,7.1C1023.6,257.9,1026.3,258.8,1029.6,258.8z"/>
	<path class="st4" d="M1067,267.9V211h13.1v8.1c0.9-1.5,2.1-2.9,3.6-4.2c1.5-1.4,3.4-2.5,5.6-3.3s4.9-1.3,7.9-1.3
		c3.5,0,6.8,0.7,9.8,2.1s5.5,3.6,7.3,6.5c1.9,3,2.8,6.8,2.8,11.5v37.5h-13.4v-35.8c0-3.7-1-6.5-3.1-8.3s-4.6-2.7-7.8-2.7
		c-2.1,0-4.1,0.4-6.1,1.1c-1.9,0.7-3.5,1.8-4.6,3.2c-1.2,1.4-1.8,3.3-1.8,5.4v37.1H1067z"/>
</g>
<g>
	<path class="st4" d="M524.4,362.6v-5.9h44.2v5.9h-18.3v53.3h-6.4v-53.3H524.4z"/>
	<path class="st4" d="M618.5,416h-6.8l-11.2-26.3h-17V416h-6.4v-59.3h22.4c4.2,0,7.6,0.6,10.5,1.9c2.8,1.2,5,3,6.4,5.4
		s2.2,5.2,2.2,8.5c0,3.2-0.6,5.9-1.8,8.1c-1.2,2.1-2.7,3.9-4.5,5.1c-1.8,1.2-3.7,2.2-5.6,2.8L618.5,416z M596.9,384.2
		c4.8,0,8.5-0.9,11.1-2.8s3.9-4.7,3.9-8.5c0-3.7-1.1-6.4-3.4-8.2c-2.3-1.8-5.4-2.6-9.5-2.6h-15.5v22.1H596.9z"/>
	<path class="st4" d="M670.2,416h-6.8l-11.2-26.3h-17V416h-6.4v-59.3h22.4c4.2,0,7.6,0.6,10.5,1.9c2.8,1.2,5,3,6.4,5.4
		s2.2,5.2,2.2,8.5c0,3.2-0.6,5.9-1.8,8.1c-1.2,2.1-2.7,3.9-4.5,5.1c-1.8,1.2-3.7,2.2-5.6,2.8L670.2,416z M648.7,384.2
		c4.8,0,8.5-0.9,11.1-2.8s3.9-4.7,3.9-8.5c0-3.7-1.1-6.4-3.4-8.2c-2.3-1.8-5.4-2.6-9.5-2.6h-15.5v22.1H648.7z"/>
	<path class="st4" d="M699.4,416v-4.3v-2.3c0-3,0.6-5.7,1.7-7.9c1.1-2.2,2.6-4.2,4.5-5.8c1.9-1.7,3.9-3.1,6.2-4.5
		c2.3-1.4,4.5-2.6,6.7-3.9c2.2-1.3,4.3-2.6,6.1-4c1.9-1.4,3.4-3,4.5-4.7c1.1-1.8,1.7-3.8,1.7-6.3c0-3.2-1.1-5.8-3.4-7.8
		c-2.3-2-5.3-3-9.1-3c-4.1,0-7.4,1.2-9.8,3.5c-2.4,2.3-3.8,5.3-4,9H698c0.1-3.3,0.9-6.4,2.5-9.1c1.6-2.8,3.9-5,6.9-6.6
		c3-1.7,6.8-2.5,11.2-2.5c3.8,0,7.2,0.7,10,2.1c2.8,1.4,5,3.3,6.6,5.8s2.3,5.4,2.3,8.7c0,3.1-0.6,5.7-1.7,7.9
		c-1.1,2.2-2.6,4.1-4.5,5.7c-1.8,1.6-3.9,3.1-6.1,4.4c-2.2,1.3-4.4,2.5-6.6,3.7s-4.3,2.5-6.1,3.8c-1.8,1.3-3.3,2.9-4.4,4.6
		c-1.1,1.7-1.7,3.8-1.7,6.2v1.4h31.5v5.8L699.4,416L699.4,416z"/>
	<path class="st4" d="M765.6,355.9c3.7,0,7.1,0.6,10,1.9s5.3,3.1,7,5.5c1.7,2.4,2.6,5.3,2.6,8.7c0,3.3-0.9,6-2.6,8.2
		c-1.7,2.2-4,3.9-6.9,5c2,0.4,4,1.3,5.9,2.8s3.4,3.3,4.6,5.5c1.2,2.1,1.8,4.3,1.8,6.6c0,3.4-0.9,6.3-2.7,8.9
		c-1.8,2.5-4.4,4.5-7.8,5.9c-3.3,1.4-7.3,2.1-11.8,2.1s-8.4-0.7-11.7-2.1c-3.3-1.4-5.9-3.4-7.7-5.9c-1.8-2.5-2.7-5.5-2.7-8.9
		c0-2.3,0.6-4.5,1.8-6.6c1.2-2.1,2.7-3.9,4.5-5.5c1.8-1.5,3.8-2.4,5.8-2.8c-2.8-1.1-5.1-2.8-6.9-5c-1.8-2.2-2.7-4.9-2.7-8.2
		c0-3.4,0.9-6.3,2.6-8.7c1.7-2.4,4.1-4.2,7-5.5C758.5,356.5,761.9,355.9,765.6,355.9z M765.6,411.5c4.7,0,8.4-1,11.2-3.1
		c2.8-2.1,4.2-4.9,4.2-8.3c0-2.3-0.6-4.3-1.9-6.1s-3-3.2-5.3-4.2c-2.3-1-5-1.5-8.1-1.5s-5.7,0.5-8,1.5c-2.3,1-4.1,2.4-5.3,4.2
		c-1.3,1.8-1.9,3.8-1.9,6.1c0,3.5,1.4,6.3,4.2,8.3C757.3,410.5,761,411.5,765.6,411.5z M765.6,382.3c3.9,0,7-0.9,9.4-2.8
		c2.4-1.8,3.6-4.4,3.6-7.8c0-3.3-1.2-6-3.6-7.9c-2.4-1.9-5.5-2.9-9.4-2.9c-3.8,0-6.9,1-9.3,2.9c-2.4,2-3.6,4.6-3.6,7.9
		c0,3.4,1.2,6,3.6,7.8C758.7,381.4,761.8,382.3,765.6,382.3z"/>
	<path class="st4" d="M814.1,416.9c-3.2,0-6.1-0.6-8.9-1.8s-5-2.9-6.9-5.1c-1.9-2.2-3-4.9-3.5-8h6.3c0.7,2.8,2.2,5.1,4.5,6.8
		c2.3,1.7,5,2.6,8.3,2.6c3.7,0,6.8-1,9.4-2.9c2.6-2,4.5-5,5.8-9s1.8-9.3,1.5-15.6c-0.6,2.3-1.7,4.3-3.2,6s-3.4,3-5.5,4
		s-4.5,1.5-7.1,1.5c-3.9,0-7.3-0.8-10.2-2.3s-5.2-3.7-6.9-6.6c-1.6-2.9-2.5-6.3-2.5-10.3s0.8-7.5,2.4-10.6c1.6-3,3.9-5.4,6.9-7.1
		s6.5-2.6,10.7-2.6c4.5,0,8.3,1.2,11.6,3.5c3.3,2.4,5.8,5.7,7.6,10.2c1.8,4.4,2.7,9.8,2.7,16c0,6.5-0.9,12.1-2.6,16.8
		s-4.4,8.3-7.8,10.8C823.2,415.6,819.1,416.9,814.1,416.9z M815.2,389.7c2.3,0,4.5-0.5,6.6-1.6s3.8-2.5,5.1-4.4c1.3-1.8,2-3.9,2-6.1
		c0-3.1-0.5-5.9-1.7-8.4c-1.1-2.4-2.7-4.4-4.8-5.8c-2.1-1.4-4.5-2.1-7.3-2.1c-2.5,0-4.8,0.6-6.7,1.8c-2,1.2-3.5,2.9-4.6,5.1
		s-1.6,4.7-1.6,7.6c0,4.2,1.1,7.6,3.3,10.1C807.6,388.4,810.9,389.7,815.2,389.7z"/>
</g>
<line class="st5" x1="524.2" y1="312.7" x2="1117.2" y2="312.7"/>
</svg>
